<?xml version="1.0" encoding="UTF-8"?>
<!-- Generator: Adobe Illustrator 18.1.1, SVG Export Plug-In . SVG Version: 6.00 Build 0)  -->
<svg version="1.1" xmlns="http://www.w3.org/2000/svg" xmlns:xlink="http://www.w3.org/1999/xlink" x="0px" y="0px" viewBox="0 0 320.3 148" enable-background="new 0 0 320.3 148" xml:space="preserve">
<g id="Layer_2">
	<g>
		<g>
			<path fill="#FFFFFF" d="M117.7,76c-7.9,0-13.2,5.6-13.2,14.2c0,8.5,5.3,14.2,13.1,14.2c7.7,0,13.1-5.8,13.1-14     C130.7,81.5,125.7,76,117.7,76z"/>
			<path fill="#FFFFFF" d="M221.7,75.3c-7.6,0-13,6.3-13,15.3c0,8.6,5.6,15,12.9,15c7.5,0,13.6-7,13.6-15.5     C235.2,81.4,229.7,75.3,221.7,75.3z"/>
			<path fill="#FFFFFF" d="M0,0l0,148h320.3V0L0,0z M58.8,114.3L37.4,43.7h14.9l14.3,47.4l14.9-47.4h14.9l-22.3,70.6H58.8z      M117.4,116.4c-15.5,0-26.6-10.9-26.6-26.2c0-15.6,10.9-26.3,26.8-26.3c15.5,0,26.6,11.2,26.6,26.7     C144.2,105,132.5,116.4,117.4,116.4z M179.1,114.3l-14.2-19.9v19.9h-13.8V43.7h13.8v40.8l14.2-19.3h15.6l-16.6,23.5l16.6,25.5     H179.1z M248.3,114.3h-14.6v-6.4c-4.3,5.8-9.3,8.5-16.5,8.5c-13.8,0-23.2-10.7-23.2-25.6c0-15.5,10-26.8,24.3-26.8     c6.7,0,11.2,2.3,15.5,7.9v-6.6h14.6V114.3z M271.6,114.3h-13.8V43.7h13.8V114.3z"/>
		</g>
	</g>
</g></svg>